<?xml version="1.0" encoding="utf-8"?>
<!-- Generator: Adobe Illustrator 18.1.1, SVG Export Plug-In . SVG Version: 6.00 Build 0)  -->
<svg version="1.1" id="Layer_1" xmlns="http://www.w3.org/2000/svg" xmlns:xlink="http://www.w3.org/1999/xlink" x="0px" y="0px"
	 viewBox="0 0 316 346" enable-background="new 0 0 316 346" xml:space="preserve">
<g>
	<path fill="#FFFFFF" d="M314.914,60.314c-0.697-0.502-1.69-1.606-2.921-2.048c-49.697-17.842-99.424-35.6-149.109-53.477
		c-2.957-1.064-5.442-1.022-8.38,0.035C105.806,22.33,57.069,39.727,8.342,57.15c-5.87,2.099-5.866,2.101-5.197,8.136
		c0.168,1.513,0.291,3.031,0.459,4.544c4.363,39.216,8.737,78.432,13.094,117.649c2.883,25.951,5.747,51.904,8.613,77.857
		c0.234,2.122,0.64,3.81,2.907,5.085c42.668,24,85.278,48.103,127.857,72.262c2.015,1.144,3.436,1.08,5.413-0.041
		c42.478-24.098,84.99-48.135,127.534-72.116c1.94-1.093,2.899-2.34,3.138-4.561c2.33-21.653,4.733-43.299,7.137-64.944
		c3.671-33.05,7.364-66.098,11.038-99.148C311.835,88.375,313.311,74.873,314.914,60.314z"/>
	<path d="M314.914,60.314c-1.603,14.559-3.079,28.061-4.579,41.56c-3.674,33.05-7.367,66.097-11.038,99.148
		c-2.404,21.645-4.808,43.291-7.137,64.944c-0.239,2.221-1.198,3.467-3.138,4.561c-42.544,23.981-85.056,48.018-127.534,72.116
		c-1.977,1.121-3.398,1.185-5.413,0.041c-42.578-24.159-85.189-48.261-127.857-72.262c-2.267-1.275-2.672-2.964-2.907-5.085
		c-2.866-25.953-5.73-51.906-8.613-77.857c-4.357-39.217-8.731-78.433-13.094-117.649c-0.168-1.513-0.291-3.031-0.459-4.544
		c-0.669-6.035-0.674-6.037,5.197-8.136c48.728-17.422,97.464-34.82,146.162-52.325c2.938-1.056,5.424-1.098,8.38-0.035
		c49.685,17.877,99.412,35.635,149.109,53.477C313.224,58.709,314.217,59.812,314.914,60.314z M258.358,252.2
		c-33.277-73.069-66.255-145.483-99.611-218.726c-33.415,73.381-66.399,145.815-99.603,218.733c11.86,0,22.865-0.087,33.867,0.065
		c2.557,0.035,3.66-0.837,4.532-3.173c5.528-14.803,11.254-29.532,16.804-44.327c0.796-2.121,1.675-3.139,4.18-3.13
		c26.808,0.1,53.616,0.096,80.424,0c2.474-0.009,3.379,0.962,4.182,3.108c5.54,14.799,11.18,29.56,16.924,44.28
		c0.49,1.255,1.957,3.014,2.999,3.034C234.524,252.281,245.998,252.2,258.358,252.2z"/>
	<path fill="#FFFFFF" d="M258.358,252.2c-12.36,0-23.834,0.081-35.303-0.137c-1.042-0.02-2.509-1.778-2.999-3.034
		c-5.744-14.72-11.385-29.482-16.924-44.28c-0.803-2.146-1.708-3.116-4.182-3.108c-26.808,0.096-53.616,0.099-80.424,0
		c-2.504-0.009-3.384,1.009-4.18,3.13c-5.55,14.795-11.276,29.524-16.804,44.327c-0.873,2.337-1.975,3.209-4.532,3.173
		c-11.002-0.151-22.007-0.065-33.867-0.065c33.204-72.918,66.188-145.352,99.603-218.733
		C192.103,106.717,225.082,179.131,258.358,252.2z M188.541,172.236c-9.89-23.165-19.637-45.997-29.792-69.783
		c-10.151,23.779-19.901,46.616-29.79,69.783C148.985,172.236,168.485,172.236,188.541,172.236z"/>
	<path d="M188.541,172.236c-20.056,0-39.556,0-59.582,0c9.89-23.166,19.639-46.003,29.79-69.783
		C168.904,126.239,178.652,149.071,188.541,172.236z"/>
</g>
</svg>
