<?xml version="1.0" encoding="utf-8"?>
<!-- Generator: Adobe Illustrator 18.1.1, SVG Export Plug-In . SVG Version: 6.00 Build 0)  -->
<svg version="1.1" id="Layer_1" xmlns="http://www.w3.org/2000/svg" xmlns:xlink="http://www.w3.org/1999/xlink" x="0px" y="0px"
	 viewBox="0 0 466.055 301.565" enable-background="new 0 0 466.055 301.565" xml:space="preserve">
<rect x="109.125" y="63.782" fill="#FFFFFF" width="239.487" height="165.991"/>
<g>
	<path fill="#7D7D7D" d="M117.023,268.178h-16.206c-0.571-27.353-2.151-53.074-4.733-77.171h-0.141l-24.675,77.171h-12.34
		l-24.526-77.171h-0.144c-1.819,23.142-2.963,48.864-3.44,77.171H16.042c0.954-34.427,3.344-66.701,7.17-96.826h20.085
		l23.381,71.146h0.144l23.525-71.146h19.219C113.774,206.635,116.259,238.916,117.023,268.178"/>
	<path fill="#7D7D7D" d="M187.309,196.741c-6.598,35.806-15.303,61.828-26.108,78.062c-8.419,12.508-17.642,18.762-27.685,18.762
		c-2.678,0-5.978-0.808-9.896-2.409v-8.632c1.914,0.281,4.16,0.43,6.742,0.43c4.684,0,8.461-1.294,11.334-3.879
		c3.439-3.149,5.16-6.689,5.16-10.611c0-2.68-1.343-8.175-4.016-16.492l-17.786-55.23h15.921l12.764,41.306
		c2.868,9.379,4.064,15.926,3.586,19.658c6.982-18.648,11.859-38.97,14.634-60.964H187.309z"/>
	<polygon fill="#A7A7A7" points="403.044,268.178 357,268.178 357,171.351 372.494,171.351 372.494,256.268 403.044,256.268 	"/>
	<path fill-rule="evenodd" clip-rule="evenodd" fill="#A7A7A7" d="M344.954,270.514l-17.798-8.776
		c1.584-1.301,3.09-2.702,4.452-4.325c7.555-8.883,11.337-22.034,11.337-39.441c0-32.032-12.574-48.058-37.725-48.058
		c-12.335,0-21.948,4.062-28.834,12.198c-7.558,8.893-11.332,21.992-11.332,39.302c0,17.022,3.344,29.508,10.038,37.439
		c6.122,7.169,15.35,10.758,27.69,10.758c4.606,0,8.834-0.566,12.677-1.702l23.176,13.487L344.954,270.514z M287.29,248.807
		c-3.923-6.31-5.885-16.438-5.885-30.404c0-24.384,7.414-36.582,22.233-36.582c7.748,0,13.436,2.917,17.073,8.747
		c3.918,6.315,5.881,16.355,5.881,30.126c0,24.577-7.414,36.87-22.234,36.87C296.612,257.564,290.922,254.651,287.29,248.807"/>
	<path fill="#A7A7A7" d="M258.302,241.34c0,8.212-3.017,14.952-9.032,20.227c-6.02,5.251-14.104,7.885-24.233,7.885
		c-9.469,0-18.65-3.029-27.541-9.042l4.16-8.317c7.65,3.825,14.576,5.734,20.793,5.734c5.832,0,10.394-1.296,13.697-3.862
		c3.296-2.583,5.27-6.183,5.27-10.753c0-5.751-4.011-10.665-11.366-14.786c-6.794-3.728-20.366-11.51-20.366-11.51
		c-7.355-5.363-11.041-11.122-11.041-20.605c0-7.843,2.749-14.183,8.241-19.006c5.505-4.833,12.606-7.25,21.304-7.25
		c8.988,0,17.161,2.4,24.523,7.179l-3.74,8.309c-6.298-2.671-12.511-4.011-18.635-4.011c-4.968,0-8.798,1.194-11.468,3.593
		c-2.685,2.38-4.343,5.441-4.343,9.174c0,5.734,4.096,10.709,11.659,14.91c6.879,3.73,20.783,11.661,20.783,11.661
		C254.533,226.227,258.302,231.935,258.302,241.34"/>
	<path fill-rule="evenodd" clip-rule="evenodd" fill="#7D7D7D" d="M422.485,138.916c-9.364-0.234-16.614,0.701-22.697,3.276
		c-1.755,0.701-4.558,0.701-4.799,2.925c0.942,0.935,1.054,2.453,1.88,3.747c1.401,2.338,3.852,5.492,6.081,7.135
		c2.456,1.872,4.914,3.737,7.492,5.375c4.558,2.819,9.708,4.45,14.146,7.26c2.583,1.636,5.148,3.74,7.731,5.5
		c1.282,0.935,2.095,2.458,3.737,3.037v-0.354c-0.823-1.05-1.055-2.57-1.868-3.747c-1.169-1.162-2.341-2.221-3.513-3.386
		c-3.396-4.562-7.611-8.537-12.164-11.813c-3.747-2.58-11.942-6.09-13.455-10.406c0,0-0.122-0.124-0.237-0.239
		c2.573-0.237,5.622-1.174,8.075-1.885c3.972-1.05,7.599-0.813,11.693-1.863c1.875-0.471,3.747-1.06,5.627-1.636v-1.059
		c-2.116-2.102-3.63-4.914-5.854-6.901c-5.961-5.146-12.52-10.172-19.304-14.39c-3.632-2.341-8.312-3.855-12.174-5.849
		c-1.396-0.703-3.735-1.05-4.557-2.226c-2.107-2.573-3.281-5.961-4.799-9.008c-3.388-6.427-6.671-13.56-9.591-20.358
		c-2.104-4.56-3.393-9.119-5.966-13.333c-12.057-19.893-25.156-31.936-45.278-43.754c-4.33-2.462-9.476-3.513-14.971-4.799
		c-2.929-0.123-5.852-0.35-8.776-0.465c-1.875-0.823-3.75-3.048-5.385-4.1c-6.671-4.21-23.862-13.333-28.778-1.285
		c-3.159,7.609,4.68,15.093,7.372,18.955c1.987,2.688,4.565,5.734,5.961,8.772c0.82,1.99,1.055,4.099,1.877,6.202
		c1.87,5.147,3.623,10.881,6.083,15.681c1.284,2.457,2.685,5.035,4.323,7.246c0.945,1.295,2.578,1.872,2.929,3.985
		c-1.633,2.336-1.76,5.846-2.695,8.773c-4.208,13.221-2.573,29.6,3.396,39.308c1.868,2.924,6.318,9.362,12.286,6.899
		c5.263-2.102,4.094-8.771,5.615-14.617c0.349-1.413,0.115-2.341,0.815-3.276v0.237c1.636,3.271,3.278,6.422,4.799,9.708
		c3.63,5.727,9.943,11.695,15.213,15.67c2.8,2.114,5.024,5.734,8.534,7.025v-0.354h-0.232c-0.703-1.05-1.753-1.521-2.69-2.336
		c-2.107-2.106-4.44-4.682-6.086-7.021c-4.911-6.549-9.247-13.807-13.099-21.294c-1.877-3.635-3.51-7.609-5.034-11.234
		c-0.7-1.396-0.7-3.509-1.872-4.209c-1.76,2.571-4.326,4.797-5.612,7.946c-2.224,5.036-2.456,11.236-3.281,17.674
		c-0.466,0.122-0.232,0-0.466,0.232c-3.74-0.935-5.026-4.794-6.435-8.061c-3.508-8.317-4.098-21.654-1.052-31.247
		c0.815-2.452,4.335-10.173,2.925-12.513c-0.706-2.232-3.044-3.507-4.328-5.269c-1.518-2.223-3.166-5.025-4.208-7.487
		c-2.81-6.55-4.22-13.806-7.252-20.355c-1.406-3.047-3.867-6.206-5.849-9.009c-2.229-3.16-4.682-5.381-6.44-9.121
		c-0.581-1.29-1.401-3.397-0.469-4.797c0.232-0.937,0.706-1.29,1.643-1.527c1.513-1.285,5.846,0.349,7.365,1.052
		c4.33,1.749,7.958,3.397,11.581,5.849c1.64,1.173,3.396,3.394,5.497,3.985h2.461c3.742,0.812,7.958,0.227,11.471,1.284
		c6.195,1.987,11.81,4.913,16.844,8.071c15.32,9.712,27.958,23.52,36.495,40.014c1.406,2.686,1.997,5.146,3.281,7.948
		c2.458,5.745,5.502,11.594,7.953,17.204c2.456,5.5,4.802,11.109,8.314,15.679c1.75,2.453,8.773,3.74,11.932,5.029
		c2.334,1.05,5.966,1.987,8.073,3.271c3.979,2.453,7.948,5.266,11.698,7.961C416.282,133.651,422.134,136.573,422.485,138.916"/>
	<path fill-rule="evenodd" clip-rule="evenodd" fill="#7D7D7D" d="M303.152,37.245c-1.984,0-3.383,0.238-4.797,0.587v0.235h0.229
		c0.945,1.868,2.583,3.163,3.745,4.799c0.942,1.872,1.76,3.737,2.695,5.61c0.117-0.113,0.23-0.235,0.23-0.235
		c1.648-1.165,2.466-3.037,2.466-5.849c-0.706-0.823-0.818-1.636-1.406-2.457C305.613,38.768,304.089,38.183,303.152,37.245"/>
	<path fill="#A7A7A7" d="M433.636,268.168h2.419v-11.864h-3.637l-2.963,8.087l-3.225-8.087h-3.508v11.864h2.29v-9.027h0.132
		l3.376,9.027h1.746l3.371-9.027V268.168z M414.103,268.168h2.565v-9.85h3.361v-2.014h-9.418v2.014h3.491V268.168z"/>
</g>
</svg>
